<?xml version="1.0" encoding="UTF-8" standalone="no"?>
<!DOCTYPE svg PUBLIC "-//W3C//DTD SVG 1.1//EN"
 "http://www.w3.org/Graphics/SVG/1.1/DTD/svg11.dtd">
<!-- Generated by graphviz version 2.40.1 (20161225.0304)
 -->
<!-- Title: models_diagram Pages: 1 -->
<svg width="1658pt" height="994pt"
 viewBox="0.00 0.00 1658.14 994.17" xmlns="http://www.w3.org/2000/svg" xmlns:xlink="http://www.w3.org/1999/xlink">
<g id="graph0" class="graph" transform="scale(1 1) rotate(0) translate(36 958.1736)">
<title>models_diagram</title>
<polygon fill="#ffffff" stroke="transparent" points="-36,36 -36,-958.1736 1622.1416,-958.1736 1622.1416,36 -36,36"/>
<!-- achievement -->
<g id="node1" class="node">
<title>achievement</title>
<polygon fill="#add8e6" stroke="transparent" points="0,-429.5701 0,-451.5701 98,-451.5701 98,-429.5701 0,-429.5701"/>
<polygon fill="none" stroke="#000000" points="0,-429.5701 0,-451.5701 98,-451.5701 98,-429.5701 0,-429.5701"/>
<text text-anchor="start" x="23.734" y="-438.5701" font-family="Times,serif" font-weight="bold" font-size="10.00" fill="#000000">achievement</text>
<polygon fill="none" stroke="#000000" points="0,-407.5701 0,-429.5701 98,-429.5701 98,-407.5701 0,-407.5701"/>
<text text-anchor="start" x="5" y="-416.5701" font-family="Times,serif" text-decoration="underline" font-size="10.00" fill="#000000">id</text>
<text text-anchor="start" x="12.779" y="-416.5701" font-family="Times,serif" font-size="10.00" fill="#000000">: NUMBER</text>
<polygon fill="none" stroke="#000000" points="0,-385.5701 0,-407.5701 98,-407.5701 98,-385.5701 0,-385.5701"/>
<text text-anchor="start" x="5" y="-393.5701" font-family="Times,serif" font-size="10.00" fill="#000000">sequence: NUMBER</text>
<polygon fill="none" stroke="#000000" points="0,-363.5701 0,-385.5701 98,-385.5701 98,-363.5701 0,-363.5701"/>
<text text-anchor="start" x="5" y="-371.5701" font-family="Times,serif" font-size="10.00" fill="#000000">name: STRING</text>
<polygon fill="none" stroke="#000000" points="0,-341.5701 0,-363.5701 98,-363.5701 98,-341.5701 0,-341.5701"/>
<text text-anchor="start" x="5" y="-349.5701" font-family="Times,serif" font-size="10.00" fill="#000000">distance: NUMBER</text>
<polygon fill="none" stroke="#000000" points="0,-319.5701 0,-341.5701 98,-341.5701 98,-319.5701 0,-319.5701"/>
<text text-anchor="start" x="5" y="-327.5701" font-family="Times,serif" font-size="10.00" fill="#000000">title: STRING</text>
<polygon fill="none" stroke="#000000" points="0,-297.5701 0,-319.5701 98,-319.5701 98,-297.5701 0,-297.5701"/>
<text text-anchor="start" x="5" y="-305.5701" font-family="Times,serif" font-size="10.00" fill="#000000">subtitle: STRING</text>
<polygon fill="none" stroke="#000000" points="0,-275.5701 0,-297.5701 98,-297.5701 98,-275.5701 0,-275.5701"/>
<text text-anchor="start" x="5" y="-283.5701" font-family="Times,serif" font-size="10.00" fill="#000000">description: TEXT</text>
<polygon fill="none" stroke="#000000" points="0,-253.5701 0,-275.5701 98,-275.5701 98,-253.5701 0,-253.5701"/>
<text text-anchor="start" x="5" y="-261.5701" font-family="Times,serif" font-size="10.00" fill="#000000">media: TEXT</text>
<polygon fill="none" stroke="#000000" points="0,-231.5701 0,-253.5701 98,-253.5701 98,-231.5701 0,-231.5701"/>
<text text-anchor="start" x="5" y="-239.5701" font-family="Times,serif" font-size="10.00" fill="#000000">icon_name: STRING</text>
<polygon fill="none" stroke="#000000" points="0,-209.5701 0,-231.5701 98,-231.5701 98,-209.5701 0,-209.5701"/>
<text text-anchor="start" x="4.9815" y="-217.5701" font-family="Times,serif" font-size="10.00" fill="#000000">map_image: STRING</text>
<polygon fill="none" stroke="#000000" points="0,-187.5701 0,-209.5701 98,-209.5701 98,-187.5701 0,-187.5701"/>
<text text-anchor="start" x="5" y="-195.5701" font-family="Times,serif" font-size="10.00" fill="#000000">content: TEXT</text>
</g>
<!-- team_achievement -->
<g id="node17" class="node">
<title>team_achievement</title>
<polygon fill="#add8e6" stroke="transparent" points="253.5,-341.5701 253.5,-363.5701 374.5,-363.5701 374.5,-341.5701 253.5,-341.5701"/>
<polygon fill="none" stroke="#000000" points="253.5,-341.5701 253.5,-363.5701 374.5,-363.5701 374.5,-341.5701 253.5,-341.5701"/>
<text text-anchor="start" x="276.516" y="-350.5701" font-family="Times,serif" font-weight="bold" font-size="10.00" fill="#000000">team_achievement</text>
<polygon fill="none" stroke="#000000" points="253.5,-319.5701 253.5,-341.5701 374.5,-341.5701 374.5,-319.5701 253.5,-319.5701"/>
<text text-anchor="start" x="258.5" y="-328.5701" font-family="Times,serif" text-decoration="underline" font-size="10.00" fill="#000000">id</text>
<text text-anchor="start" x="266.279" y="-328.5701" font-family="Times,serif" font-size="10.00" fill="#000000">: NUMBER</text>
<polygon fill="none" stroke="#000000" points="253.5,-297.5701 253.5,-319.5701 374.5,-319.5701 374.5,-297.5701 253.5,-297.5701"/>
<text text-anchor="start" x="258.5" y="-306.5701" font-family="Times,serif" font-style="italic" text-decoration="underline" font-size="10.00" fill="#000000">team_id</text>
<text text-anchor="start" x="290.715" y="-306.5701" font-family="Times,serif" font-size="10.00" fill="#000000">: NUMBER</text>
<polygon fill="none" stroke="#000000" points="253.5,-275.5701 253.5,-297.5701 374.5,-297.5701 374.5,-275.5701 253.5,-275.5701"/>
<text text-anchor="start" x="258.318" y="-284.5701" font-family="Times,serif" font-style="italic" text-decoration="underline" font-size="10.00" fill="#000000">achievement_id</text>
<text text-anchor="start" x="321.629" y="-284.5701" font-family="Times,serif" font-size="10.00" fill="#000000">: NUMBER</text>
</g>
<!-- achievement&#45;&gt;team_achievement -->
<g id="edge1" class="edge">
<title>achievement&#45;&gt;team_achievement</title>
<path fill="none" stroke="#000000" stroke-width=".75" d="M98.1305,-319.5701C139.8801,-319.5701 200.2149,-319.5701 246.4097,-319.5701"/>
<polygon fill="#000000" stroke="#000000" stroke-width=".75" points="246.5434,-319.5702 252.5434,-322.2701 249.5434,-319.5701 252.5434,-319.5701 252.5434,-319.5701 252.5434,-319.5701 249.5434,-319.5701 252.5433,-316.8701 246.5434,-319.5702 246.5434,-319.5702"/>
</g>
<!-- cause -->
<g id="node2" class="node">
<title>cause</title>
<polygon fill="#add8e6" stroke="transparent" points="1416.9683,-491.8249 1416.9683,-513.8249 1489.9683,-513.8249 1489.9683,-491.8249 1416.9683,-491.8249"/>
<polygon fill="none" stroke="#000000" points="1416.9683,-491.8249 1416.9683,-513.8249 1489.9683,-513.8249 1489.9683,-491.8249 1416.9683,-491.8249"/>
<text text-anchor="start" x="1442.3653" y="-500.8249" font-family="Times,serif" font-weight="bold" font-size="10.00" fill="#000000">cause</text>
<polygon fill="none" stroke="#000000" points="1416.9683,-469.8249 1416.9683,-491.8249 1489.9683,-491.8249 1489.9683,-469.8249 1416.9683,-469.8249"/>
<text text-anchor="start" x="1421.9683" y="-478.8249" font-family="Times,serif" text-decoration="underline" font-size="10.00" fill="#000000">id</text>
<text text-anchor="start" x="1429.7473" y="-478.8249" font-family="Times,serif" font-size="10.00" fill="#000000">: NUMBER</text>
<polygon fill="none" stroke="#000000" points="1416.9683,-447.8249 1416.9683,-469.8249 1489.9683,-469.8249 1489.9683,-447.8249 1416.9683,-447.8249"/>
<text text-anchor="start" x="1421.9483" y="-455.8249" font-family="Times,serif" font-size="10.00" fill="#000000">name: STRING</text>
</g>
<!-- donor -->
<g id="node3" class="node">
<title>donor</title>
<polygon fill="#add8e6" stroke="transparent" points="1484.0743,-850.7561 1484.0743,-872.7561 1583.0743,-872.7561 1583.0743,-850.7561 1484.0743,-850.7561"/>
<polygon fill="none" stroke="#000000" points="1484.0743,-850.7561 1484.0743,-872.7561 1583.0743,-872.7561 1583.0743,-850.7561 1484.0743,-850.7561"/>
<text text-anchor="start" x="1521.9098" y="-859.7561" font-family="Times,serif" font-weight="bold" font-size="10.00" fill="#000000">donor</text>
<polygon fill="none" stroke="#000000" points="1484.0743,-828.7561 1484.0743,-850.7561 1583.0743,-850.7561 1583.0743,-828.7561 1484.0743,-828.7561"/>
<text text-anchor="start" x="1489.0743" y="-837.7561" font-family="Times,serif" text-decoration="underline" font-size="10.00" fill="#000000">id</text>
<text text-anchor="start" x="1496.8533" y="-837.7561" font-family="Times,serif" font-size="10.00" fill="#000000">: NUMBER</text>
<polygon fill="none" stroke="#000000" points="1484.0743,-806.7561 1484.0743,-828.7561 1583.0743,-828.7561 1583.0743,-806.7561 1484.0743,-806.7561"/>
<text text-anchor="start" x="1489.0743" y="-814.7561" font-family="Times,serif" font-size="10.00" fill="#000000">name: STRING</text>
<polygon fill="none" stroke="#000000" points="1484.0743,-784.7561 1484.0743,-806.7561 1583.0743,-806.7561 1583.0743,-784.7561 1484.0743,-784.7561"/>
<text text-anchor="start" x="1488.9963" y="-792.7561" font-family="Times,serif" font-size="10.00" fill="#000000">luminate_id: STRING</text>
</g>
<!-- participant_donor -->
<g id="node9" class="node">
<title>participant_donor</title>
<polygon fill="#add8e6" stroke="transparent" points="1400.8824,-689.8872 1400.8824,-711.8872 1513.8824,-711.8872 1513.8824,-689.8872 1400.8824,-689.8872"/>
<polygon fill="none" stroke="#000000" points="1400.8824,-689.8872 1400.8824,-711.8872 1513.8824,-711.8872 1513.8824,-689.8872 1400.8824,-689.8872"/>
<text text-anchor="start" x="1421.8369" y="-698.8872" font-family="Times,serif" font-weight="bold" font-size="10.00" fill="#000000">participant_donor</text>
<polygon fill="none" stroke="#000000" points="1400.8824,-667.8872 1400.8824,-689.8872 1513.8824,-689.8872 1513.8824,-667.8872 1400.8824,-667.8872"/>
<text text-anchor="start" x="1405.8824" y="-676.8872" font-family="Times,serif" text-decoration="underline" font-size="10.00" fill="#000000">id</text>
<text text-anchor="start" x="1413.6614" y="-676.8872" font-family="Times,serif" font-size="10.00" fill="#000000">: NUMBER</text>
<polygon fill="none" stroke="#000000" points="1400.8824,-645.8872 1400.8824,-667.8872 1513.8824,-667.8872 1513.8824,-645.8872 1400.8824,-645.8872"/>
<text text-anchor="start" x="1405.5854" y="-654.8872" font-family="Times,serif" font-style="italic" text-decoration="underline" font-size="10.00" fill="#000000">participant_id</text>
<text text-anchor="start" x="1461.1264" y="-654.8872" font-family="Times,serif" font-size="10.00" fill="#000000">: NUMBER</text>
<polygon fill="none" stroke="#000000" points="1400.8824,-623.8872 1400.8824,-645.8872 1513.8824,-645.8872 1513.8824,-623.8872 1400.8824,-623.8872"/>
<text text-anchor="start" x="1405.8824" y="-632.8872" font-family="Times,serif" font-style="italic" text-decoration="underline" font-size="10.00" fill="#000000">donor_id</text>
<text text-anchor="start" x="1441.9904" y="-632.8872" font-family="Times,serif" font-size="10.00" fill="#000000">: NUMBER</text>
</g>
<!-- donor&#45;&gt;participant_donor -->
<g id="edge2" class="edge">
<title>donor&#45;&gt;participant_donor</title>
<path fill="none" stroke="#000000" stroke-width=".75" d="M1512.0528,-784.3721C1502.2677,-763.7122 1490.5877,-739.0514 1480.4992,-717.7509"/>
<polygon fill="#000000" stroke="#000000" stroke-width=".75" points="1480.4036,-717.5489 1480.2754,-710.9706 1479.1194,-714.8376 1477.8352,-712.1263 1477.8352,-712.1263 1477.8352,-712.1263 1479.1194,-714.8376 1475.3951,-713.2821 1480.4036,-717.5489 1480.4036,-717.5489"/>
</g>
<!-- event -->
<g id="node4" class="node">
<title>event</title>
<polygon fill="#add8e6" stroke="transparent" points="1364.5245,-308.6907 1364.5245,-330.6907 1485.5245,-330.6907 1485.5245,-308.6907 1364.5245,-308.6907"/>
<polygon fill="none" stroke="#000000" points="1364.5245,-308.6907 1364.5245,-330.6907 1485.5245,-330.6907 1485.5245,-308.6907 1364.5245,-308.6907"/>
<text text-anchor="start" x="1414.196" y="-317.6907" font-family="Times,serif" font-weight="bold" font-size="10.00" fill="#000000">event</text>
<polygon fill="none" stroke="#000000" points="1364.5245,-286.6907 1364.5245,-308.6907 1485.5245,-308.6907 1485.5245,-286.6907 1364.5245,-286.6907"/>
<text text-anchor="start" x="1369.5245" y="-295.6907" font-family="Times,serif" text-decoration="underline" font-size="10.00" fill="#000000">id</text>
<text text-anchor="start" x="1377.3035" y="-295.6907" font-family="Times,serif" font-size="10.00" fill="#000000">: NUMBER</text>
<polygon fill="none" stroke="#000000" points="1364.5245,-264.6907 1364.5245,-286.6907 1485.5245,-286.6907 1485.5245,-264.6907 1364.5245,-264.6907"/>
<text text-anchor="start" x="1369.5245" y="-272.6907" font-family="Times,serif" font-size="10.00" fill="#000000">name: STRING</text>
<polygon fill="none" stroke="#000000" points="1364.5245,-242.6907 1364.5245,-264.6907 1485.5245,-264.6907 1485.5245,-242.6907 1364.5245,-242.6907"/>
<text text-anchor="start" x="1369.5245" y="-250.6907" font-family="Times,serif" font-size="10.00" fill="#000000">image: STRING</text>
<polygon fill="none" stroke="#000000" points="1364.5245,-220.6907 1364.5245,-242.6907 1485.5245,-242.6907 1485.5245,-220.6907 1364.5245,-220.6907"/>
<text text-anchor="start" x="1369.5245" y="-228.6907" font-family="Times,serif" font-size="10.00" fill="#000000">description: TEXT</text>
<polygon fill="none" stroke="#000000" points="1364.5245,-198.6907 1364.5245,-220.6907 1485.5245,-220.6907 1485.5245,-198.6907 1364.5245,-198.6907"/>
<text text-anchor="start" x="1369.5245" y="-206.6907" font-family="Times,serif" font-size="10.00" fill="#000000">start_date: DATE</text>
<polygon fill="none" stroke="#000000" points="1364.5245,-176.6907 1364.5245,-198.6907 1485.5245,-198.6907 1485.5245,-176.6907 1364.5245,-176.6907"/>
<text text-anchor="start" x="1369.5245" y="-184.6907" font-family="Times,serif" font-size="10.00" fill="#000000">end_date: DATE</text>
<polygon fill="none" stroke="#000000" points="1364.5245,-154.6907 1364.5245,-176.6907 1485.5245,-176.6907 1485.5245,-154.6907 1364.5245,-154.6907"/>
<text text-anchor="start" x="1369.5245" y="-162.6907" font-family="Times,serif" font-size="10.00" fill="#000000">team_limit: NUMBER</text>
<polygon fill="none" stroke="#000000" points="1364.5245,-132.6907 1364.5245,-154.6907 1485.5245,-154.6907 1485.5245,-132.6907 1364.5245,-132.6907"/>
<text text-anchor="start" x="1369.063" y="-140.6907" font-family="Times,serif" font-size="10.00" fill="#000000">team_building_start: DATE</text>
<polygon fill="none" stroke="#000000" points="1364.5245,-110.6907 1364.5245,-132.6907 1485.5245,-132.6907 1485.5245,-110.6907 1364.5245,-110.6907"/>
<text text-anchor="start" x="1369.5245" y="-118.6907" font-family="Times,serif" font-size="10.00" fill="#000000">team_building_end: DATE</text>
<polygon fill="none" stroke="#000000" points="1364.5245,-88.6907 1364.5245,-110.6907 1485.5245,-110.6907 1485.5245,-88.6907 1364.5245,-88.6907"/>
<text text-anchor="start" x="1369.5245" y="-96.6907" font-family="Times,serif" font-size="10.00" fill="#000000">default_steps: NUMBER</text>
<polygon fill="none" stroke="#000000" points="1364.5245,-66.6907 1364.5245,-88.6907 1485.5245,-88.6907 1485.5245,-66.6907 1364.5245,-66.6907"/>
<text text-anchor="start" x="1369.5245" y="-75.6907" font-family="Times,serif" font-style="italic" text-decoration="underline" font-size="10.00" fill="#000000">locality_id</text>
<text text-anchor="start" x="1412.2975" y="-75.6907" font-family="Times,serif" font-size="10.00" fill="#000000">: NUMBER</text>
<polygon fill="none" stroke="#000000" points="1364.5245,-44.6907 1364.5245,-66.6907 1485.5245,-66.6907 1485.5245,-44.6907 1364.5245,-44.6907"/>
<text text-anchor="start" x="1369.5245" y="-53.6907" font-family="Times,serif" font-style="italic" text-decoration="underline" font-size="10.00" fill="#000000">cause_id</text>
<text text-anchor="start" x="1404.5095" y="-53.6907" font-family="Times,serif" font-size="10.00" fill="#000000">: NUMBER</text>
</g>
<!-- event&#45;&gt;cause -->
<g id="edge12" class="edge">
<title>event&#45;&gt;cause</title>
<path fill="none" stroke="#000000" stroke-width=".75" d="M1439.0101,-336.9757C1443.0562,-378.6741 1447.0739,-420.0791 1449.7525,-447.6841"/>
<polygon fill="#000000" stroke="#000000" stroke-width=".75" points="1438.9926,-336.7949 1441.1004,-330.5621 1438.7029,-333.8089 1438.4131,-330.8229 1438.4131,-330.8229 1438.4131,-330.8229 1438.7029,-333.8089 1435.7257,-331.0837 1438.9926,-336.7949 1438.9926,-336.7949"/>
</g>
<!-- locality -->
<g id="node6" class="node">
<title>locality</title>
<polygon fill="#add8e6" stroke="transparent" points="1513.6416,-77.0958 1513.6416,-99.0958 1586.6416,-99.0958 1586.6416,-77.0958 1513.6416,-77.0958"/>
<polygon fill="none" stroke="#000000" points="1513.6416,-77.0958 1513.6416,-99.0958 1586.6416,-99.0958 1586.6416,-77.0958 1513.6416,-77.0958"/>
<text text-anchor="start" x="1535.1446" y="-86.0958" font-family="Times,serif" font-weight="bold" font-size="10.00" fill="#000000">locality</text>
<polygon fill="none" stroke="#000000" points="1513.6416,-55.0958 1513.6416,-77.0958 1586.6416,-77.0958 1586.6416,-55.0958 1513.6416,-55.0958"/>
<text text-anchor="start" x="1518.6416" y="-64.0958" font-family="Times,serif" text-decoration="underline" font-size="10.00" fill="#000000">id</text>
<text text-anchor="start" x="1526.4206" y="-64.0958" font-family="Times,serif" font-size="10.00" fill="#000000">: NUMBER</text>
<polygon fill="none" stroke="#000000" points="1513.6416,-33.0958 1513.6416,-55.0958 1586.6416,-55.0958 1586.6416,-33.0958 1513.6416,-33.0958"/>
<text text-anchor="start" x="1518.6216" y="-41.0958" font-family="Times,serif" font-size="10.00" fill="#000000">name: STRING</text>
</g>
<!-- event&#45;&gt;locality -->
<g id="edge11" class="edge">
<title>event&#45;&gt;locality</title>
<path fill="none" stroke="#000000" stroke-width=".75" d="M1489.6641,-124.3848C1498.6498,-115.6521 1507.5643,-106.9885 1515.6645,-99.1164"/>
<polygon fill="#000000" stroke="#000000" stroke-width=".75" points="1489.5533,-124.4925 1483.3688,-126.7379 1487.4019,-126.5834 1485.2505,-128.6742 1485.2505,-128.6742 1485.2505,-128.6742 1487.4019,-126.5834 1487.1323,-130.6105 1489.5533,-124.4925 1489.5533,-124.4925"/>
</g>
<!-- participant_event -->
<g id="node10" class="node">
<title>participant_event</title>
<polygon fill="#add8e6" stroke="transparent" points="1074.8515,-191.3153 1074.8515,-213.3153 1187.8515,-213.3153 1187.8515,-191.3153 1074.8515,-191.3153"/>
<polygon fill="none" stroke="#000000" points="1074.8515,-191.3153 1074.8515,-213.3153 1187.8515,-213.3153 1187.8515,-191.3153 1074.8515,-191.3153"/>
<text text-anchor="start" x="1096.642" y="-200.3153" font-family="Times,serif" font-weight="bold" font-size="10.00" fill="#000000">participant_event</text>
<polygon fill="none" stroke="#000000" points="1074.8515,-169.3153 1074.8515,-191.3153 1187.8515,-191.3153 1187.8515,-169.3153 1074.8515,-169.3153"/>
<text text-anchor="start" x="1079.8515" y="-178.3153" font-family="Times,serif" text-decoration="underline" font-size="10.00" fill="#000000">id</text>
<text text-anchor="start" x="1087.6305" y="-178.3153" font-family="Times,serif" font-size="10.00" fill="#000000">: NUMBER</text>
<polygon fill="none" stroke="#000000" points="1074.8515,-147.3153 1074.8515,-169.3153 1187.8515,-169.3153 1187.8515,-147.3153 1074.8515,-147.3153"/>
<text text-anchor="start" x="1079.8515" y="-155.3153" font-family="Times,serif" font-size="10.00" fill="#000000">commitment: NUMBER</text>
<polygon fill="none" stroke="#000000" points="1074.8515,-125.3153 1074.8515,-147.3153 1187.8515,-147.3153 1187.8515,-125.3153 1074.8515,-125.3153"/>
<text text-anchor="start" x="1079.8515" y="-134.3153" font-family="Times,serif" font-style="italic" text-decoration="underline" font-size="10.00" fill="#000000">event_id</text>
<text text-anchor="start" x="1114.2875" y="-134.3153" font-family="Times,serif" font-size="10.00" fill="#000000">: NUMBER</text>
<polygon fill="none" stroke="#000000" points="1074.8515,-103.3153 1074.8515,-125.3153 1187.8515,-125.3153 1187.8515,-103.3153 1074.8515,-103.3153"/>
<text text-anchor="start" x="1079.5545" y="-112.3153" font-family="Times,serif" font-style="italic" text-decoration="underline" font-size="10.00" fill="#000000">participant_id</text>
<text text-anchor="start" x="1135.0955" y="-112.3153" font-family="Times,serif" font-size="10.00" fill="#000000">: NUMBER</text>
</g>
<!-- event&#45;&gt;participant_event -->
<g id="edge3" class="edge">
<title>event&#45;&gt;participant_event</title>
<path fill="none" stroke="#000000" stroke-width=".75" d="M1363.6752,-181.6041C1313.951,-176.6303 1243.9144,-169.6247 1193.6649,-164.5984"/>
<polygon fill="#000000" stroke="#000000" stroke-width=".75" points="1193.6079,-164.5927 1187.9065,-161.3089 1190.6228,-164.2941 1187.6377,-163.9955 1187.6377,-163.9955 1187.6377,-163.9955 1190.6228,-164.2941 1187.369,-166.6821 1193.6079,-164.5927 1193.6079,-164.5927"/>
</g>
<!-- fcmtoken -->
<g id="node5" class="node">
<title>fcmtoken</title>
<polygon fill="#add8e6" stroke="transparent" points="854.0496,-66 854.0496,-88 967.0496,-88 967.0496,-66 854.0496,-66"/>
<polygon fill="none" stroke="#000000" points="854.0496,-66 854.0496,-88 967.0496,-88 967.0496,-66 854.0496,-66"/>
<text text-anchor="start" x="891.6671" y="-75" font-family="Times,serif" font-weight="bold" font-size="10.00" fill="#000000">fcmtoken</text>
<polygon fill="none" stroke="#000000" points="854.0496,-44 854.0496,-66 967.0496,-66 967.0496,-44 854.0496,-44"/>
<text text-anchor="start" x="859.0496" y="-53" font-family="Times,serif" text-decoration="underline" font-size="10.00" fill="#000000">id</text>
<text text-anchor="start" x="866.8286" y="-53" font-family="Times,serif" font-size="10.00" fill="#000000">: NUMBER</text>
<polygon fill="none" stroke="#000000" points="854.0496,-22 854.0496,-44 967.0496,-44 967.0496,-22 854.0496,-22"/>
<text text-anchor="start" x="859.0496" y="-30" font-family="Times,serif" font-size="10.00" fill="#000000">fcm_token: STRING</text>
<polygon fill="none" stroke="#000000" points="854.0496,0 854.0496,-22 967.0496,-22 967.0496,0 854.0496,0"/>
<text text-anchor="start" x="858.7526" y="-9" font-family="Times,serif" font-style="italic" text-decoration="underline" font-size="10.00" fill="#000000">participant_id</text>
<text text-anchor="start" x="914.2936" y="-9" font-family="Times,serif" font-size="10.00" fill="#000000">: NUMBER</text>
</g>
<!-- participant -->
<g id="node8" class="node">
<title>participant</title>
<polygon fill="#add8e6" stroke="transparent" points="1079.6551,-535.6284 1079.6551,-557.6284 1181.6551,-557.6284 1181.6551,-535.6284 1079.6551,-535.6284"/>
<polygon fill="none" stroke="#000000" points="1079.6551,-535.6284 1079.6551,-557.6284 1181.6551,-557.6284 1181.6551,-535.6284 1079.6551,-535.6284"/>
<text text-anchor="start" x="1109.2741" y="-544.6284" font-family="Times,serif" font-weight="bold" font-size="10.00" fill="#000000">participant</text>
<polygon fill="none" stroke="#000000" points="1079.6551,-513.6284 1079.6551,-535.6284 1181.6551,-535.6284 1181.6551,-513.6284 1079.6551,-513.6284"/>
<text text-anchor="start" x="1084.6551" y="-522.6284" font-family="Times,serif" text-decoration="underline" font-size="10.00" fill="#000000">id</text>
<text text-anchor="start" x="1092.4341" y="-522.6284" font-family="Times,serif" font-size="10.00" fill="#000000">: NUMBER</text>
<polygon fill="none" stroke="#000000" points="1079.6551,-491.6284 1079.6551,-513.6284 1181.6551,-513.6284 1181.6551,-491.6284 1079.6551,-491.6284"/>
<text text-anchor="start" x="1084.6551" y="-499.6284" font-family="Times,serif" font-size="10.00" fill="#000000">fbid: STRING</text>
<polygon fill="none" stroke="#000000" points="1079.6551,-469.6284 1079.6551,-491.6284 1181.6551,-491.6284 1181.6551,-469.6284 1079.6551,-469.6284"/>
<text text-anchor="start" x="1084.4231" y="-477.6284" font-family="Times,serif" font-size="10.00" fill="#000000">registered: BOOLEAN</text>
<polygon fill="none" stroke="#000000" points="1079.6551,-447.6284 1079.6551,-469.6284 1181.6551,-469.6284 1181.6551,-447.6284 1079.6551,-447.6284"/>
<text text-anchor="start" x="1084.6551" y="-456.6284" font-family="Times,serif" font-style="italic" text-decoration="underline" font-size="10.00" fill="#000000">team_id</text>
<text text-anchor="start" x="1116.8701" y="-456.6284" font-family="Times,serif" font-size="10.00" fill="#000000">: NUMBER</text>
<polygon fill="none" stroke="#000000" points="1079.6551,-425.6284 1079.6551,-447.6284 1181.6551,-447.6284 1181.6551,-425.6284 1079.6551,-425.6284"/>
<text text-anchor="start" x="1084.6551" y="-434.6284" font-family="Times,serif" font-style="italic" text-decoration="underline" font-size="10.00" fill="#000000">source_id</text>
<text text-anchor="start" x="1123.5301" y="-434.6284" font-family="Times,serif" font-size="10.00" fill="#000000">: NUMBER</text>
<polygon fill="none" stroke="#000000" points="1079.6551,-403.6284 1079.6551,-425.6284 1181.6551,-425.6284 1181.6551,-403.6284 1079.6551,-403.6284"/>
<text text-anchor="start" x="1084.6551" y="-412.6284" font-family="Times,serif" font-style="italic" text-decoration="underline" font-size="10.00" fill="#000000">cause_id</text>
<text text-anchor="start" x="1119.6401" y="-412.6284" font-family="Times,serif" font-size="10.00" fill="#000000">: NUMBER</text>
</g>
<!-- fcmtoken&#45;&gt;participant -->
<g id="edge13" class="edge">
<title>fcmtoken&#45;&gt;participant</title>
<path fill="none" stroke="#000000" stroke-width=".75" d="M935.3345,-94.0445C973.5862,-169.7534 1046.4764,-314.0197 1091.5874,-403.3046"/>
<polygon fill="#000000" stroke="#000000" stroke-width=".75" points="935.1223,-93.6244 934.8264,-87.0515 933.7694,-90.9467 932.4165,-88.2691 932.4165,-88.2691 932.4165,-88.2691 933.7694,-90.9467 930.0066,-89.4867 935.1223,-93.6244 935.1223,-93.6244"/>
</g>
<!-- notification -->
<g id="node7" class="node">
<title>notification</title>
<polygon fill="#add8e6" stroke="transparent" points="1036.8736,-900.1736 1036.8736,-922.1736 1133.8736,-922.1736 1133.8736,-900.1736 1036.8736,-900.1736"/>
<polygon fill="none" stroke="#000000" points="1036.8736,-900.1736 1036.8736,-922.1736 1133.8736,-922.1736 1133.8736,-900.1736 1036.8736,-900.1736"/>
<text text-anchor="start" x="1062.3226" y="-909.1736" font-family="Times,serif" font-weight="bold" font-size="10.00" fill="#000000">notification</text>
<polygon fill="none" stroke="#000000" points="1036.8736,-878.1736 1036.8736,-900.1736 1133.8736,-900.1736 1133.8736,-878.1736 1036.8736,-878.1736"/>
<text text-anchor="start" x="1041.8736" y="-887.1736" font-family="Times,serif" text-decoration="underline" font-size="10.00" fill="#000000">id</text>
<text text-anchor="start" x="1049.6526" y="-887.1736" font-family="Times,serif" font-size="10.00" fill="#000000">: NUMBER</text>
<polygon fill="none" stroke="#000000" points="1036.8736,-856.1736 1036.8736,-878.1736 1133.8736,-878.1736 1133.8736,-856.1736 1036.8736,-856.1736"/>
<text text-anchor="start" x="1041.8736" y="-864.1736" font-family="Times,serif" font-size="10.00" fill="#000000">message: STRING</text>
<polygon fill="none" stroke="#000000" points="1036.8736,-834.1736 1036.8736,-856.1736 1133.8736,-856.1736 1133.8736,-834.1736 1036.8736,-834.1736"/>
<text text-anchor="start" x="1041.6406" y="-842.1736" font-family="Times,serif" font-size="10.00" fill="#000000">message_date: DATE</text>
<polygon fill="none" stroke="#000000" points="1036.8736,-812.1736 1036.8736,-834.1736 1133.8736,-834.1736 1133.8736,-812.1736 1036.8736,-812.1736"/>
<text text-anchor="start" x="1041.8736" y="-820.1736" font-family="Times,serif" font-size="10.00" fill="#000000">expiry_date: DATE</text>
<polygon fill="none" stroke="#000000" points="1036.8736,-790.1736 1036.8736,-812.1736 1133.8736,-812.1736 1133.8736,-790.1736 1036.8736,-790.1736"/>
<text text-anchor="start" x="1041.8736" y="-798.1736" font-family="Times,serif" font-size="10.00" fill="#000000">priority: NUMBER</text>
<polygon fill="none" stroke="#000000" points="1036.8736,-768.1736 1036.8736,-790.1736 1133.8736,-790.1736 1133.8736,-768.1736 1036.8736,-768.1736"/>
<text text-anchor="start" x="1041.8736" y="-776.1736" font-family="Times,serif" font-size="10.00" fill="#000000">event_id: NUMBER</text>
</g>
<!-- participant_notification -->
<g id="node11" class="node">
<title>participant_notification</title>
<polygon fill="#add8e6" stroke="transparent" points="1102.7379,-685.5767 1102.7379,-707.5767 1218.7379,-707.5767 1218.7379,-685.5767 1102.7379,-685.5767"/>
<polygon fill="none" stroke="#000000" points="1102.7379,-685.5767 1102.7379,-707.5767 1218.7379,-707.5767 1218.7379,-685.5767 1102.7379,-685.5767"/>
<text text-anchor="start" x="1113.8059" y="-694.5767" font-family="Times,serif" font-weight="bold" font-size="10.00" fill="#000000">participant_notification</text>
<polygon fill="none" stroke="#000000" points="1102.7379,-663.5767 1102.7379,-685.5767 1218.7379,-685.5767 1218.7379,-663.5767 1102.7379,-663.5767"/>
<text text-anchor="start" x="1107.7379" y="-672.5767" font-family="Times,serif" text-decoration="underline" font-size="10.00" fill="#000000">id</text>
<text text-anchor="start" x="1115.5169" y="-672.5767" font-family="Times,serif" font-size="10.00" fill="#000000">: NUMBER</text>
<polygon fill="none" stroke="#000000" points="1102.7379,-641.5767 1102.7379,-663.5767 1218.7379,-663.5767 1218.7379,-641.5767 1102.7379,-641.5767"/>
<text text-anchor="start" x="1107.7379" y="-649.5767" font-family="Times,serif" font-size="10.00" fill="#000000">read_flag: BOOLEAN</text>
<polygon fill="none" stroke="#000000" points="1102.7379,-619.5767 1102.7379,-641.5767 1218.7379,-641.5767 1218.7379,-619.5767 1102.7379,-619.5767"/>
<text text-anchor="start" x="1107.7379" y="-628.5767" font-family="Times,serif" font-style="italic" text-decoration="underline" font-size="10.00" fill="#000000">participant_id</text>
<text text-anchor="start" x="1163.2789" y="-628.5767" font-family="Times,serif" font-size="10.00" fill="#000000">: NUMBER</text>
<polygon fill="none" stroke="#000000" points="1102.7379,-597.5767 1102.7379,-619.5767 1218.7379,-619.5767 1218.7379,-597.5767 1102.7379,-597.5767"/>
<text text-anchor="start" x="1107.2709" y="-606.5767" font-family="Times,serif" font-style="italic" text-decoration="underline" font-size="10.00" fill="#000000">notification_id</text>
<text text-anchor="start" x="1166.1519" y="-606.5767" font-family="Times,serif" font-size="10.00" fill="#000000">: NUMBER</text>
</g>
<!-- notification&#45;&gt;participant_notification -->
<g id="edge4" class="edge">
<title>notification&#45;&gt;participant_notification</title>
<path fill="none" stroke="#000000" stroke-width=".75" d="M1115.2934,-767.9468C1122.4413,-749.8003 1129.96,-730.7125 1136.7785,-713.4024"/>
<polygon fill="#000000" stroke="#000000" stroke-width=".75" points="1136.8635,-713.1866 1141.5746,-708.5936 1137.963,-710.3953 1139.0625,-707.6041 1139.0625,-707.6041 1139.0625,-707.6041 1137.963,-710.3953 1136.5504,-706.6145 1136.8635,-713.1866 1136.8635,-713.1866"/>
</g>
<!-- participant&#45;&gt;cause -->
<g id="edge16" class="edge">
<title>participant&#45;&gt;cause</title>
<path fill="none" stroke="#000000" stroke-width=".75" d="M1187.9829,-480.6634C1253.968,-480.7036 1360.3937,-480.7684 1416.1715,-480.8024"/>
<polygon fill="#000000" stroke="#000000" stroke-width=".75" points="1187.7266,-480.6633 1181.7282,-477.9596 1184.7266,-480.6614 1181.7266,-480.6596 1181.7266,-480.6596 1181.7266,-480.6596 1184.7266,-480.6614 1181.7249,-483.3596 1187.7266,-480.6633 1187.7266,-480.6633"/>
</g>
<!-- participant&#45;&gt;participant_donor -->
<g id="edge7" class="edge">
<title>participant&#45;&gt;participant_donor</title>
<path fill="none" stroke="#000000" stroke-width=".75" d="M1181.987,-510.0936C1239.6395,-543.187 1333.1901,-596.8862 1394.8793,-632.2966"/>
<polygon fill="#000000" stroke="#000000" stroke-width=".75" points="1395.1722,-632.4647 1399.0317,-637.7934 1397.774,-633.9582 1400.3759,-635.4517 1400.3759,-635.4517 1400.3759,-635.4517 1397.774,-633.9582 1401.72,-633.1101 1395.1722,-632.4647 1395.1722,-632.4647"/>
</g>
<!-- participant&#45;&gt;participant_event -->
<g id="edge5" class="edge">
<title>participant&#45;&gt;participant_event</title>
<path fill="none" stroke="#000000" stroke-width=".75" d="M1130.7021,-403.4264C1130.7364,-347.2322 1130.7821,-272.1432 1130.8139,-219.9463"/>
<polygon fill="#000000" stroke="#000000" stroke-width=".75" points="1130.814,-219.6971 1133.5177,-213.6988 1130.8159,-216.6971 1130.8177,-213.6971 1130.8177,-213.6971 1130.8177,-213.6971 1130.8159,-216.6971 1128.1177,-213.6954 1130.814,-219.6971 1130.814,-219.6971"/>
</g>
<!-- participant&#45;&gt;participant_notification -->
<g id="edge8" class="edge">
<title>participant&#45;&gt;participant_notification</title>
<path fill="none" stroke="#000000" stroke-width=".75" d="M1144.1566,-557.8006C1146.1334,-569.1 1148.1461,-580.6044 1150.0562,-591.5219"/>
<polygon fill="#000000" stroke="#000000" stroke-width=".75" points="1150.0718,-591.6116 1148.4463,-597.9871 1150.5889,-594.5667 1151.1059,-597.5218 1151.1059,-597.5218 1151.1059,-597.5218 1150.5889,-594.5667 1153.7655,-597.0565 1150.0718,-591.6116 1150.0718,-591.6116"/>
</g>
<!-- participant_sponsor -->
<g id="node12" class="node">
<title>participant_sponsor</title>
<polygon fill="#add8e6" stroke="transparent" points="877.707,-483.8074 877.707,-505.8074 990.707,-505.8074 990.707,-483.8074 877.707,-483.8074"/>
<polygon fill="none" stroke="#000000" points="877.707,-483.8074 877.707,-505.8074 990.707,-505.8074 990.707,-483.8074 877.707,-483.8074"/>
<text text-anchor="start" x="894.7725" y="-492.8074" font-family="Times,serif" font-weight="bold" font-size="10.00" fill="#000000">participant_sponsor</text>
<polygon fill="none" stroke="#000000" points="877.707,-461.8074 877.707,-483.8074 990.707,-483.8074 990.707,-461.8074 877.707,-461.8074"/>
<text text-anchor="start" x="882.707" y="-470.8074" font-family="Times,serif" text-decoration="underline" font-size="10.00" fill="#000000">id</text>
<text text-anchor="start" x="890.486" y="-470.8074" font-family="Times,serif" font-size="10.00" fill="#000000">: NUMBER</text>
<polygon fill="none" stroke="#000000" points="877.707,-439.8074 877.707,-461.8074 990.707,-461.8074 990.707,-439.8074 877.707,-439.8074"/>
<text text-anchor="start" x="882.41" y="-448.8074" font-family="Times,serif" font-style="italic" text-decoration="underline" font-size="10.00" fill="#000000">participant_id</text>
<text text-anchor="start" x="937.951" y="-448.8074" font-family="Times,serif" font-size="10.00" fill="#000000">: NUMBER</text>
<polygon fill="none" stroke="#000000" points="877.707,-417.8074 877.707,-439.8074 990.707,-439.8074 990.707,-417.8074 877.707,-417.8074"/>
<text text-anchor="start" x="882.707" y="-426.8074" font-family="Times,serif" font-style="italic" text-decoration="underline" font-size="10.00" fill="#000000">sponsor_id</text>
<text text-anchor="start" x="926.593" y="-426.8074" font-family="Times,serif" font-size="10.00" fill="#000000">: NUMBER</text>
</g>
<!-- participant&#45;&gt;participant_sponsor -->
<g id="edge6" class="edge">
<title>participant&#45;&gt;participant_sponsor</title>
<path fill="none" stroke="#000000" stroke-width=".75" d="M1079.4234,-475.7326C1053.9929,-473.3023 1023.0536,-470.3457 996.2365,-467.7829"/>
<polygon fill="#000000" stroke="#000000" stroke-width=".75" points="996.1996,-467.7795 990.4837,-464.5208 993.2132,-467.494 990.2268,-467.2086 990.2268,-467.2086 990.2268,-467.2086 993.2132,-467.494 989.9699,-469.8964 996.1996,-467.7795 996.1996,-467.7795"/>
</g>
<!-- source -->
<g id="node14" class="node">
<title>source</title>
<polygon fill="#add8e6" stroke="transparent" points="781.964,-293.8552 781.964,-315.8552 854.964,-315.8552 854.964,-293.8552 781.964,-293.8552"/>
<polygon fill="none" stroke="#000000" points="781.964,-293.8552 781.964,-315.8552 854.964,-315.8552 854.964,-293.8552 781.964,-293.8552"/>
<text text-anchor="start" x="805.416" y="-302.8552" font-family="Times,serif" font-weight="bold" font-size="10.00" fill="#000000">source</text>
<polygon fill="none" stroke="#000000" points="781.964,-271.8552 781.964,-293.8552 854.964,-293.8552 854.964,-271.8552 781.964,-271.8552"/>
<text text-anchor="start" x="786.964" y="-280.8552" font-family="Times,serif" text-decoration="underline" font-size="10.00" fill="#000000">id</text>
<text text-anchor="start" x="794.743" y="-280.8552" font-family="Times,serif" font-size="10.00" fill="#000000">: NUMBER</text>
<polygon fill="none" stroke="#000000" points="781.964,-249.8552 781.964,-271.8552 854.964,-271.8552 854.964,-249.8552 781.964,-249.8552"/>
<text text-anchor="start" x="786.944" y="-257.8552" font-family="Times,serif" font-size="10.00" fill="#000000">name: STRING</text>
</g>
<!-- participant&#45;&gt;source -->
<g id="edge15" class="edge">
<title>participant&#45;&gt;source</title>
<path fill="none" stroke="#000000" stroke-width=".75" d="M1074.0891,-444.8512C1010.3753,-404.553 908.686,-340.2358 854.5962,-306.0247"/>
<polygon fill="#000000" stroke="#000000" stroke-width=".75" points="1074.2998,-444.9844 1077.9274,-450.4736 1076.8352,-446.588 1079.3706,-448.1917 1079.3706,-448.1917 1079.3706,-448.1917 1076.8352,-446.588 1080.8139,-445.9098 1074.2998,-444.9844 1074.2998,-444.9844"/>
</g>
<!-- team -->
<g id="node16" class="node">
<title>team</title>
<polygon fill="#add8e6" stroke="transparent" points="467,-363.5701 467,-385.5701 558,-385.5701 558,-363.5701 467,-363.5701"/>
<polygon fill="none" stroke="#000000" points="467,-363.5701 467,-385.5701 558,-385.5701 558,-363.5701 467,-363.5701"/>
<text text-anchor="start" x="502.782" y="-372.5701" font-family="Times,serif" font-weight="bold" font-size="10.00" fill="#000000">team</text>
<polygon fill="none" stroke="#000000" points="467,-341.5701 467,-363.5701 558,-363.5701 558,-341.5701 467,-341.5701"/>
<text text-anchor="start" x="472" y="-350.5701" font-family="Times,serif" text-decoration="underline" font-size="10.00" fill="#000000">id</text>
<text text-anchor="start" x="479.779" y="-350.5701" font-family="Times,serif" font-size="10.00" fill="#000000">: NUMBER</text>
<polygon fill="none" stroke="#000000" points="467,-319.5701 467,-341.5701 558,-341.5701 558,-319.5701 467,-319.5701"/>
<text text-anchor="start" x="472" y="-327.5701" font-family="Times,serif" font-size="10.00" fill="#000000">name: STRING</text>
<polygon fill="none" stroke="#000000" points="467,-297.5701 467,-319.5701 558,-319.5701 558,-297.5701 467,-297.5701"/>
<text text-anchor="start" x="472" y="-305.5701" font-family="Times,serif" font-size="10.00" fill="#000000">image: STRING</text>
<polygon fill="none" stroke="#000000" points="467,-275.5701 467,-297.5701 558,-297.5701 558,-275.5701 467,-275.5701"/>
<text text-anchor="start" x="472" y="-283.5701" font-family="Times,serif" font-size="10.00" fill="#000000">hidden: BOOLEAN</text>
<polygon fill="none" stroke="#000000" points="467,-253.5701 467,-275.5701 558,-275.5701 558,-253.5701 467,-253.5701"/>
<text text-anchor="start" x="471.542" y="-261.5701" font-family="Times,serif" font-size="10.00" fill="#000000">creator_id: STRING</text>
</g>
<!-- participant&#45;&gt;team -->
<g id="edge14" class="edge">
<title>participant&#45;&gt;team</title>
<path fill="none" stroke="#000000" stroke-width=".75" d="M1073.4707,-465.7413C951.6359,-434.0233 668.5653,-360.3297 557.6977,-331.4668"/>
<polygon fill="#000000" stroke="#000000" stroke-width=".75" points="1073.6951,-465.7996 1078.8213,-469.9242 1076.5984,-466.5555 1079.5016,-467.3113 1079.5016,-467.3113 1079.5016,-467.3113 1076.5984,-466.5555 1080.1819,-464.6984 1073.6951,-465.7996 1073.6951,-465.7996"/>
</g>
<!-- record -->
<g id="node13" class="node">
<title>record</title>
<polygon fill="#add8e6" stroke="transparent" points="789.5879,-199.9566 789.5879,-221.9566 902.5879,-221.9566 902.5879,-199.9566 789.5879,-199.9566"/>
<polygon fill="none" stroke="#000000" points="789.5879,-199.9566 789.5879,-221.9566 902.5879,-221.9566 902.5879,-199.9566 789.5879,-199.9566"/>
<text text-anchor="start" x="833.3199" y="-208.9566" font-family="Times,serif" font-weight="bold" font-size="10.00" fill="#000000">record</text>
<polygon fill="none" stroke="#000000" points="789.5879,-177.9566 789.5879,-199.9566 902.5879,-199.9566 902.5879,-177.9566 789.5879,-177.9566"/>
<text text-anchor="start" x="794.5879" y="-186.9566" font-family="Times,serif" text-decoration="underline" font-size="10.00" fill="#000000">id</text>
<text text-anchor="start" x="802.3669" y="-186.9566" font-family="Times,serif" font-size="10.00" fill="#000000">: NUMBER</text>
<polygon fill="none" stroke="#000000" points="789.5879,-155.9566 789.5879,-177.9566 902.5879,-177.9566 902.5879,-155.9566 789.5879,-155.9566"/>
<text text-anchor="start" x="794.5879" y="-163.9566" font-family="Times,serif" font-size="10.00" fill="#000000">date: DATE</text>
<polygon fill="none" stroke="#000000" points="789.5879,-133.9566 789.5879,-155.9566 902.5879,-155.9566 902.5879,-133.9566 789.5879,-133.9566"/>
<text text-anchor="start" x="794.5879" y="-141.9566" font-family="Times,serif" font-size="10.00" fill="#000000">distance: NUMBER</text>
<polygon fill="none" stroke="#000000" points="789.5879,-111.9566 789.5879,-133.9566 902.5879,-133.9566 902.5879,-111.9566 789.5879,-111.9566"/>
<text text-anchor="start" x="794.2909" y="-120.9566" font-family="Times,serif" font-style="italic" text-decoration="underline" font-size="10.00" fill="#000000">participant_id</text>
<text text-anchor="start" x="849.8319" y="-120.9566" font-family="Times,serif" font-size="10.00" fill="#000000">: NUMBER</text>
<polygon fill="none" stroke="#000000" points="789.5879,-89.9566 789.5879,-111.9566 902.5879,-111.9566 902.5879,-89.9566 789.5879,-89.9566"/>
<text text-anchor="start" x="794.5879" y="-98.9566" font-family="Times,serif" font-style="italic" text-decoration="underline" font-size="10.00" fill="#000000">source_id</text>
<text text-anchor="start" x="833.4629" y="-98.9566" font-family="Times,serif" font-size="10.00" fill="#000000">: NUMBER</text>
</g>
<!-- record&#45;&gt;participant -->
<g id="edge17" class="edge">
<title>record&#45;&gt;participant</title>
<path fill="none" stroke="#000000" stroke-width=".75" d="M906.2337,-225.0281C957.7947,-283.7524 1030.9915,-367.1185 1079.6031,-422.4837"/>
<polygon fill="#000000" stroke="#000000" stroke-width=".75" points="906.2076,-224.9983 904.2777,-218.7081 904.2282,-222.7439 902.2488,-220.4895 902.2488,-220.4895 902.2488,-220.4895 904.2282,-222.7439 900.2199,-222.271 906.2076,-224.9983 906.2076,-224.9983"/>
</g>
<!-- record&#45;&gt;source -->
<g id="edge18" class="edge">
<title>record&#45;&gt;source</title>
<path fill="none" stroke="#000000" stroke-width=".75" d="M829.8376,-228.3103C828.2121,-235.7774 826.6231,-243.0767 825.1632,-249.7833"/>
<polygon fill="#000000" stroke="#000000" stroke-width=".75" points="829.9333,-227.8704 833.8478,-222.582 830.5714,-224.939 831.2096,-222.0077 831.2096,-222.0077 831.2096,-222.0077 830.5714,-224.939 828.5713,-221.4334 829.9333,-227.8704 829.9333,-227.8704"/>
</g>
<!-- sponsor -->
<g id="node15" class="node">
<title>sponsor</title>
<polygon fill="#add8e6" stroke="transparent" points="719.2724,-549.4991 719.2724,-571.4991 818.2724,-571.4991 818.2724,-549.4991 719.2724,-549.4991"/>
<polygon fill="none" stroke="#000000" points="719.2724,-549.4991 719.2724,-571.4991 818.2724,-571.4991 818.2724,-549.4991 719.2724,-549.4991"/>
<text text-anchor="start" x="753.2189" y="-558.4991" font-family="Times,serif" font-weight="bold" font-size="10.00" fill="#000000">sponsor</text>
<polygon fill="none" stroke="#000000" points="719.2724,-527.4991 719.2724,-549.4991 818.2724,-549.4991 818.2724,-527.4991 719.2724,-527.4991"/>
<text text-anchor="start" x="724.2724" y="-536.4991" font-family="Times,serif" text-decoration="underline" font-size="10.00" fill="#000000">id</text>
<text text-anchor="start" x="732.0514" y="-536.4991" font-family="Times,serif" font-size="10.00" fill="#000000">: NUMBER</text>
<polygon fill="none" stroke="#000000" points="719.2724,-505.4991 719.2724,-527.4991 818.2724,-527.4991 818.2724,-505.4991 719.2724,-505.4991"/>
<text text-anchor="start" x="724.2724" y="-513.4991" font-family="Times,serif" font-size="10.00" fill="#000000">name: STRING</text>
<polygon fill="none" stroke="#000000" points="719.2724,-483.4991 719.2724,-505.4991 818.2724,-505.4991 818.2724,-483.4991 719.2724,-483.4991"/>
<text text-anchor="start" x="724.1944" y="-491.4991" font-family="Times,serif" font-size="10.00" fill="#000000">luminate_id: STRING</text>
</g>
<!-- sponsor&#45;&gt;participant_sponsor -->
<g id="edge9" class="edge">
<title>sponsor&#45;&gt;participant_sponsor</title>
<path fill="none" stroke="#000000" stroke-width=".75" d="M817.9082,-507.7894C834.668,-501.1343 853.5971,-493.6178 871.2209,-486.6197"/>
<polygon fill="#000000" stroke="#000000" stroke-width=".75" points="871.5661,-486.4827 878.139,-486.7777 874.3543,-485.3755 877.1426,-484.2683 877.1426,-484.2683 877.1426,-484.2683 874.3543,-485.3755 876.1461,-481.7589 871.5661,-486.4827 871.5661,-486.4827"/>
</g>
<!-- team&#45;&gt;team_achievement -->
<g id="edge10" class="edge">
<title>team&#45;&gt;team_achievement</title>
<path fill="none" stroke="#000000" stroke-width=".75" d="M466.4601,-319.5701C441.0274,-319.5701 408.8614,-319.5701 380.5961,-319.5701"/>
<polygon fill="#000000" stroke="#000000" stroke-width=".75" points="380.2545,-319.5702 374.2545,-316.8701 377.2545,-319.5701 374.2545,-319.5701 374.2545,-319.5701 374.2545,-319.5701 377.2545,-319.5701 374.2544,-322.2701 380.2545,-319.5702 380.2545,-319.5702"/>
</g>
</g>
</svg>
